# xmcd
#
# Track frame offsets:
#	150
#	26306
#	49930
#	63429
#	82273
#	102523
#	121085
#	143022
#	166646
#	186895
#	204895
#	219520
#	247644
#	264519
#	280830
#	300517
#	321892
#
# Disc length: 4565 seconds
#
# Revision: 3
# Processed by: cddbd v1.5.2PL0 Copyright (c) Steve Scherf et al.
# Submitted via: audiograbber 1.83.01
#
DISCID=e211d311
DTITLE=Ministry of Sound - The Annual Spring 2009 CD2
DYEAR=2009
DGENRE=House
TTITLE0=Faithless Feat. Cass Fox - Music Matters (Mark Knight Remix)
TTITLE1=ATFC Feat. Yasmeen - Tell U  Y (Chris Lake Remix)
TTITLE2=Cidinho and Doca - Rap Das Armas (D.O.N.S. Remix)
TTITLE3=Lissat and Voltaxx - Release Yourself (Music Takes You Higher) (Skyler Cl
TTITLE3=ub Mix)
TTITLE4=Mastiksoul - Run For Cover
TTITLE5=Smax and Gold Feat. Inusa Dawuda - Rising Sun (Club Mix)
TTITLE6=Jason Herd Feat. Roland Clark - I Feel Good (Juan Kid Remix)
TTITLE7=R.O.N.Y. - I Feel Love
TTITLE8=Ida Corr - Ride My Tempo (Oliver Lang Dojo Mix)
TTITLE9=Kurd Maverick - Blue Monday (Vandalism Remix)
TTITLE10=Paul Attrax - Like A Bitch (Alternative Club Mix)
TTITLE11=Jansen - Staring At The Sun (DBN Remix)
TTITLE12=Norman Doray and Tristan Garner - Last Forever (Daddy's Groove Extended 
TTITLE12=Remix)
TTITLE13=Female Deejays Feat. Azin - Memories (Gold Ryan and Tapesh Remix)
TTITLE14=Goger Sanchez Feat. Terri B. - Bang That Box (Laidback Luke Remix)
TTITLE15=Deniz Koyu - Feel This (Vocal Remix)
TTITLE16=Eddie Thoneick - I Wanna Freak U (Chris Moody Remix)
EXTD=
EXTT0=
EXTT1=
EXTT2=
EXTT3=
EXTT4=
EXTT5=
EXTT6=
EXTT7=
EXTT8=
EXTT9=
EXTT10=
EXTT11=
EXTT12=
EXTT13=
EXTT14=
EXTT15=
EXTT16=
PLAYORDER=
